<mxfile host="app.diagrams.net" agent="Mozilla/5.0 (Windows NT 10.0; Win64; x64) AppleWebKit/537.36 (KHTML, like Gecko) Chrome/127.0.0.0 Safari/537.36 Edg/127.0.0.0" version="24.7.6">
  <diagram name="Page-1" id="AqOYOeoOcHNVUCLqRR6C">
    <mxGraphModel dx="1403" dy="532" grid="0" gridSize="10" guides="1" tooltips="1" connect="1" arrows="1" fold="1" page="1" pageScale="1" pageWidth="1169" pageHeight="827" math="0" shadow="0">
      <root>
        <mxCell id="0" />
        <mxCell id="1" parent="0" />
        <mxCell id="DXzVk3drle5wCnbR4Go3-2" value="CDIL" style="rounded=1;whiteSpace=wrap;html=1;fillColor=#0050ef;fontColor=#ffffff;strokeColor=#001DBC;" parent="1" vertex="1">
          <mxGeometry x="269" y="507" width="81" height="58" as="geometry" />
        </mxCell>
        <mxCell id="DXzVk3drle5wCnbR4Go3-3" value="Customer" style="verticalLabelPosition=bottom;html=1;verticalAlign=top;align=center;strokeColor=#666666;fillColor=#f5f5f5;shape=mxgraph.azure.mobile;pointerEvents=1;gradientColor=#b3b3b3;" parent="1" vertex="1">
          <mxGeometry x="61" y="508" width="35" height="50" as="geometry" />
        </mxCell>
        <mxCell id="DXzVk3drle5wCnbR4Go3-5" value="Afterpay Touch Payment Gateway" style="rounded=1;whiteSpace=wrap;html=1;fillColor=#b0e3e6;strokeColor=#0e8088;" parent="1" vertex="1">
          <mxGeometry x="597" y="506" width="110" height="58" as="geometry" />
        </mxCell>
        <mxCell id="DXzVk3drle5wCnbR4Go3-6" value="PINHost" style="rounded=1;whiteSpace=wrap;html=1;strokeWidth=1;fillColor=#0050ef;fontColor=#ffffff;strokeColor=#001DBC;arcSize=16;" parent="1" vertex="1">
          <mxGeometry x="612" y="685" width="80" height="50" as="geometry" />
        </mxCell>
        <mxCell id="DXzVk3drle5wCnbR4Go3-7" value="Upwire" style="rounded=1;whiteSpace=wrap;html=1;fillColor=#b0e3e6;strokeColor=#0e8088;" parent="1" vertex="1">
          <mxGeometry x="440" y="402" width="76" height="42" as="geometry" />
        </mxCell>
        <mxCell id="DXzVk3drle5wCnbR4Go3-9" value="IVR via IMS/MSS SIP&lt;div style=&quot;font-size: 8px;&quot;&gt;without exiting credit card&lt;/div&gt;" style="curved=1;endArrow=classic;html=1;rounded=0;exitX=0.457;exitY=0.025;exitDx=0;exitDy=0;fillColor=#1ba1e2;strokeColor=#006EAF;strokeWidth=2;entryX=0;entryY=0.5;entryDx=0;entryDy=0;exitPerimeter=0;fontSize=8;" parent="1" source="DXzVk3drle5wCnbR4Go3-2" target="DXzVk3drle5wCnbR4Go3-7" edge="1">
          <mxGeometry x="0.0668" y="-8" width="50" height="50" relative="1" as="geometry">
            <mxPoint x="350" y="610" as="sourcePoint" />
            <mxPoint x="389.99999999999136" y="470" as="targetPoint" />
            <Array as="points">
              <mxPoint x="328" y="455" />
            </Array>
            <mxPoint as="offset" />
          </mxGeometry>
        </mxCell>
        <mxCell id="DXzVk3drle5wCnbR4Go3-13" value="555 CRIMSON IVR" style="curved=1;endArrow=classic;html=1;rounded=0;fillColor=#1ba1e2;strokeColor=#006EAF;entryX=0;entryY=0.5;entryDx=0;entryDy=0;strokeWidth=2;exitX=1;exitY=0.5;exitDx=0;exitDy=0;exitPerimeter=0;fontSize=8;" parent="1" edge="1">
          <mxGeometry x="0.0128" y="11" width="50" height="50" relative="1" as="geometry">
            <mxPoint x="96" y="524" as="sourcePoint" />
            <mxPoint x="269" y="527" as="targetPoint" />
            <Array as="points" />
            <mxPoint as="offset" />
          </mxGeometry>
        </mxCell>
        <mxCell id="DXzVk3drle5wCnbR4Go3-15" value="9999 SMS" style="curved=1;endArrow=classic;html=1;rounded=0;entryX=0;entryY=0.75;entryDx=0;entryDy=0;fillColor=#d5e8d4;strokeColor=#00FF00;strokeWidth=2;exitX=0.988;exitY=0.848;exitDx=0;exitDy=0;exitPerimeter=0;fontSize=8;" parent="1" source="DXzVk3drle5wCnbR4Go3-3" target="DXzVk3drle5wCnbR4Go3-2" edge="1">
          <mxGeometry x="-0.0379" y="-11" width="50" height="50" relative="1" as="geometry">
            <mxPoint x="103" y="535" as="sourcePoint" />
            <mxPoint x="280" y="660" as="targetPoint" />
            <Array as="points" />
            <mxPoint as="offset" />
          </mxGeometry>
        </mxCell>
        <mxCell id="DXzVk3drle5wCnbR4Go3-16" value="444 Upwire IVR" style="curved=1;endArrow=classic;html=1;rounded=0;entryX=0.012;entryY=0.354;entryDx=0;entryDy=0;fillColor=#fa6800;strokeColor=#C73500;strokeWidth=2;entryPerimeter=0;exitX=0.879;exitY=0;exitDx=0;exitDy=0;exitPerimeter=0;fontSize=8;" parent="1" source="DXzVk3drle5wCnbR4Go3-3" target="DXzVk3drle5wCnbR4Go3-7" edge="1">
          <mxGeometry x="-0.318" y="-3" width="50" height="50" relative="1" as="geometry">
            <mxPoint x="82" y="485" as="sourcePoint" />
            <mxPoint x="509.9999999999998" y="400" as="targetPoint" />
            <Array as="points">
              <mxPoint x="116" y="467" />
              <mxPoint x="204" y="433" />
              <mxPoint x="308" y="417" />
            </Array>
            <mxPoint as="offset" />
          </mxGeometry>
        </mxCell>
        <mxCell id="DXzVk3drle5wCnbR4Go3-23" value="PPIN&lt;div&gt;Recharge Gateway&lt;/div&gt;" style="rounded=1;whiteSpace=wrap;html=1;fillColor=#0050ef;fontColor=#ffffff;strokeColor=#001DBC;" parent="1" vertex="1">
          <mxGeometry x="358" y="726" width="110" height="41" as="geometry" />
        </mxCell>
        <mxCell id="DXzVk3drle5wCnbR4Go3-27" value="Recharge API&lt;div style=&quot;font-size: 8px;&quot;&gt;eTopup&lt;/div&gt;" style="curved=1;endArrow=classic;html=1;rounded=0;fillColor=#0050ef;strokeColor=#0c0c0d;strokeWidth=2;exitX=0.5;exitY=1;exitDx=0;exitDy=0;entryX=1;entryY=0.5;entryDx=0;entryDy=0;fontSize=8;" parent="1" source="DXzVk3drle5wCnbR4Go3-5" target="DXzVk3drle5wCnbR4Go3-23" edge="1">
          <mxGeometry x="-0.0835" y="-49" width="50" height="50" relative="1" as="geometry">
            <mxPoint x="660.568034557235" y="585.2500000000002" as="sourcePoint" />
            <mxPoint x="523" y="757.0618556701031" as="targetPoint" />
            <Array as="points">
              <mxPoint x="656" y="632" />
              <mxPoint x="648" y="693" />
              <mxPoint x="595" y="751" />
            </Array>
            <mxPoint as="offset" />
          </mxGeometry>
        </mxCell>
        <mxCell id="DXzVk3drle5wCnbR4Go3-36" value="IP Sec Tunnel" style="sketch=0;pointerEvents=1;shadow=0;dashed=0;html=1;strokeColor=#ae4132;fillColor=#fad9d5;labelPosition=center;verticalLabelPosition=bottom;verticalAlign=top;outlineConnect=0;align=center;shape=mxgraph.office.servers.tunnel_straight;fontColor=#e71313;rotation=-90;" parent="1" vertex="1">
          <mxGeometry x="597.1899999999999" y="620" width="109.88" height="10" as="geometry" />
        </mxCell>
        <mxCell id="DXzVk3drle5wCnbR4Go3-37" value="" style="verticalLabelPosition=bottom;verticalAlign=top;html=1;shape=mxgraph.basic.x;fillColor=#e51400;strokeColor=#B20000;fontColor=#ffffff;" parent="1" vertex="1">
          <mxGeometry x="642.13" y="615" width="20" height="20" as="geometry" />
        </mxCell>
        <mxCell id="DXzVk3drle5wCnbR4Go3-49" value="" style="endArrow=classic;startArrow=classic;html=1;rounded=0;exitX=0.986;exitY=0.6;exitDx=0;exitDy=0;strokeWidth=2;fillColor=#cdeb8b;strokeColor=#00FF00;entryX=0.004;entryY=0.593;entryDx=0;entryDy=0;entryPerimeter=0;exitPerimeter=0;" parent="1" edge="1">
          <mxGeometry width="50" height="50" relative="1" as="geometry">
            <mxPoint x="348.6860000000002" y="549.41" as="sourcePoint" />
            <mxPoint x="597.3119999999998" y="548.0040000000002" as="targetPoint" />
            <Array as="points" />
          </mxGeometry>
        </mxCell>
        <mxCell id="DXzVk3drle5wCnbR4Go3-51" value="" style="verticalLabelPosition=bottom;verticalAlign=top;html=1;shape=mxgraph.basic.x;fillColor=#e51400;strokeColor=#B20000;fontColor=#ffffff;" parent="1" vertex="1">
          <mxGeometry x="312" y="473" width="20" height="20" as="geometry" />
        </mxCell>
        <mxCell id="DXzVk3drle5wCnbR4Go3-40" value="Recharge API&amp;nbsp;&lt;div style=&quot;font-size: 8px;&quot;&gt;eTopup&lt;/div&gt;" style="curved=1;endArrow=classic;html=1;rounded=0;fillColor=#1ba1e2;strokeColor=#006EAF;strokeWidth=2;exitX=0.669;exitY=0.994;exitDx=0;exitDy=0;entryX=0.177;entryY=0.002;entryDx=0;entryDy=0;entryPerimeter=0;fontSize=8;exitPerimeter=0;" parent="1" source="DXzVk3drle5wCnbR4Go3-2" target="DXzVk3drle5wCnbR4Go3-23" edge="1">
          <mxGeometry x="0.2035" y="48" width="50" height="50" relative="1" as="geometry">
            <mxPoint x="348" y="536" as="sourcePoint" />
            <mxPoint x="419" y="723" as="targetPoint" />
            <Array as="points">
              <mxPoint x="336" y="655" />
            </Array>
            <mxPoint as="offset" />
          </mxGeometry>
        </mxCell>
        <mxCell id="DXzVk3drle5wCnbR4Go3-54" value="" style="curved=1;endArrow=classic;html=1;rounded=0;entryX=0.036;entryY=0.039;entryDx=0;entryDy=0;fillColor=#d5e8d4;strokeColor=#00FF00;strokeWidth=2;exitX=0.5;exitY=1;exitDx=0;exitDy=0;entryPerimeter=0;" parent="1" source="DXzVk3drle5wCnbR4Go3-2" target="DXzVk3drle5wCnbR4Go3-23" edge="1">
          <mxGeometry x="0.1073" y="25" width="50" height="50" relative="1" as="geometry">
            <mxPoint x="157" y="684" as="sourcePoint" />
            <mxPoint x="330" y="685" as="targetPoint" />
            <Array as="points">
              <mxPoint x="317" y="658" />
            </Array>
            <mxPoint as="offset" />
          </mxGeometry>
        </mxCell>
        <mxCell id="DXzVk3drle5wCnbR4Go3-53" value="Payment API" style="endArrow=classic;startArrow=classic;html=1;rounded=0;exitX=1;exitY=0.5;exitDx=0;exitDy=0;strokeWidth=2;fillColor=#1ba1e2;strokeColor=#006EAF;fontSize=8;" parent="1" edge="1">
          <mxGeometry x="-0.0035" y="16" width="50" height="50" relative="1" as="geometry">
            <mxPoint x="350" y="523" as="sourcePoint" />
            <mxPoint x="597" y="522" as="targetPoint" />
            <mxPoint as="offset" />
          </mxGeometry>
        </mxCell>
        <mxCell id="DXzVk3drle5wCnbR4Go3-55" value="" style="curved=1;endArrow=classic;html=1;rounded=0;fillColor=#0050ef;strokeColor=#0c0c0d;strokeWidth=2;exitX=0.963;exitY=0.483;exitDx=0;exitDy=0;exitPerimeter=0;" parent="1" source="DXzVk3drle5wCnbR4Go3-7" target="DXzVk3drle5wCnbR4Go3-5" edge="1">
          <mxGeometry x="0.1445" y="1" width="50" height="50" relative="1" as="geometry">
            <mxPoint x="848" y="417" as="sourcePoint" />
            <mxPoint x="655" y="604" as="targetPoint" />
            <Array as="points">
              <mxPoint x="616" y="437" />
            </Array>
            <mxPoint as="offset" />
          </mxGeometry>
        </mxCell>
        <mxCell id="Y_YnZIeOcwDo8_RhBI7r-1" value="IT SDP" style="ellipse;whiteSpace=wrap;html=1;aspect=fixed;fillColor=#ffff88;strokeColor=#36393d;" vertex="1" parent="1">
          <mxGeometry x="446" y="512" width="50" height="50" as="geometry" />
        </mxCell>
      </root>
    </mxGraphModel>
  </diagram>
</mxfile>
